<?xml version="1.0" encoding="UTF-8" standalone="no"?>
<!DOCTYPE svg PUBLIC "-//W3C//DTD SVG 1.1//EN"
 "http://www.w3.org/Graphics/SVG/1.1/DTD/svg11.dtd">
<!-- Generated by graphviz version 2.40.1 (20161225.0304)
 -->
<!-- Title: Tree Pages: 1 -->
<svg width="477pt" height="269pt"
 viewBox="0.00 0.00 476.50 269.00" xmlns="http://www.w3.org/2000/svg" xmlns:xlink="http://www.w3.org/1999/xlink">
<g id="graph0" class="graph" transform="scale(1 1) rotate(0) translate(4 265)">
<title>Tree</title>
<polygon fill="#ffffff" stroke="transparent" points="-4,4 -4,-265 472.5,-265 472.5,4 -4,4"/>
<!-- 0 -->
<g id="node1" class="node">
<title>0</title>
<path fill="#efb083" stroke="#000000" d="M269,-261C269,-261 192,-261 192,-261 186,-261 180,-255 180,-249 180,-249 180,-205 180,-205 180,-199 186,-193 192,-193 192,-193 269,-193 269,-193 275,-193 281,-199 281,-205 281,-205 281,-249 281,-249 281,-255 275,-261 269,-261"/>
<text text-anchor="start" x="201.5" y="-245.8" font-family="Helvetica,sans-Serif" font-size="14.00" fill="#000000">x ≤ 3.133</text>
<text text-anchor="start" x="191.5" y="-230.8" font-family="Helvetica,sans-Serif" font-size="14.00" fill="#000000">mse = 0.547</text>
<text text-anchor="start" x="188.5" y="-215.8" font-family="Helvetica,sans-Serif" font-size="14.00" fill="#000000">samples = 80</text>
<text text-anchor="start" x="188" y="-200.8" font-family="Helvetica,sans-Serif" font-size="14.00" fill="#000000">value = 0.122</text>
</g>
<!-- 1 -->
<g id="node2" class="node">
<title>1</title>
<path fill="#e78c4b" stroke="#000000" d="M208,-157C208,-157 131,-157 131,-157 125,-157 119,-151 119,-145 119,-145 119,-101 119,-101 119,-95 125,-89 131,-89 131,-89 208,-89 208,-89 214,-89 220,-95 220,-101 220,-101 220,-145 220,-145 220,-151 214,-157 208,-157"/>
<text text-anchor="start" x="140.5" y="-141.8" font-family="Helvetica,sans-Serif" font-size="14.00" fill="#000000">x ≤ 0.514</text>
<text text-anchor="start" x="130.5" y="-126.8" font-family="Helvetica,sans-Serif" font-size="14.00" fill="#000000">mse = 0.231</text>
<text text-anchor="start" x="127.5" y="-111.8" font-family="Helvetica,sans-Serif" font-size="14.00" fill="#000000">samples = 51</text>
<text text-anchor="start" x="127" y="-96.8" font-family="Helvetica,sans-Serif" font-size="14.00" fill="#000000">value = 0.571</text>
</g>
<!-- 0&#45;&gt;1 -->
<g id="edge1" class="edge">
<title>0&#45;&gt;1</title>
<path fill="none" stroke="#000000" d="M210.5263,-192.9465C205.4707,-184.3271 199.9753,-174.9579 194.6983,-165.9611"/>
<polygon fill="#000000" stroke="#000000" points="197.5969,-163.985 189.5186,-157.13 191.5589,-167.5265 197.5969,-163.985"/>
<text text-anchor="middle" x="183.214" y="-177.622" font-family="Helvetica,sans-Serif" font-size="14.00" fill="#000000">True</text>
</g>
<!-- 4 -->
<g id="node5" class="node">
<title>4</title>
<path fill="#fcefe6" stroke="#000000" d="M332.5,-157C332.5,-157 250.5,-157 250.5,-157 244.5,-157 238.5,-151 238.5,-145 238.5,-145 238.5,-101 238.5,-101 238.5,-95 244.5,-89 250.5,-89 250.5,-89 332.5,-89 332.5,-89 338.5,-89 344.5,-95 344.5,-101 344.5,-101 344.5,-145 344.5,-145 344.5,-151 338.5,-157 332.5,-157"/>
<text text-anchor="start" x="266.5" y="-141.8" font-family="Helvetica,sans-Serif" font-size="14.00" fill="#000000">x ≤ 3.85</text>
<text text-anchor="start" x="252.5" y="-126.8" font-family="Helvetica,sans-Serif" font-size="14.00" fill="#000000">mse = 0.124</text>
<text text-anchor="start" x="249.5" y="-111.8" font-family="Helvetica,sans-Serif" font-size="14.00" fill="#000000">samples = 29</text>
<text text-anchor="start" x="246.5" y="-96.8" font-family="Helvetica,sans-Serif" font-size="14.00" fill="#000000">value = &#45;0.667</text>
</g>
<!-- 0&#45;&gt;4 -->
<g id="edge4" class="edge">
<title>0&#45;&gt;4</title>
<path fill="none" stroke="#000000" d="M250.4737,-192.9465C255.5293,-184.3271 261.0247,-174.9579 266.3017,-165.9611"/>
<polygon fill="#000000" stroke="#000000" points="269.4411,-167.5265 271.4814,-157.13 263.4031,-163.985 269.4411,-167.5265"/>
<text text-anchor="middle" x="277.786" y="-177.622" font-family="Helvetica,sans-Serif" font-size="14.00" fill="#000000">False</text>
</g>
<!-- 2 -->
<g id="node3" class="node">
<title>2</title>
<path fill="#f0b68c" stroke="#000000" d="M89,-53C89,-53 12,-53 12,-53 6,-53 0,-47 0,-41 0,-41 0,-12 0,-12 0,-6 6,0 12,0 12,0 89,0 89,0 95,0 101,-6 101,-12 101,-12 101,-41 101,-41 101,-47 95,-53 89,-53"/>
<text text-anchor="start" x="11.5" y="-37.8" font-family="Helvetica,sans-Serif" font-size="14.00" fill="#000000">mse = 0.192</text>
<text text-anchor="start" x="8.5" y="-22.8" font-family="Helvetica,sans-Serif" font-size="14.00" fill="#000000">samples = 11</text>
<text text-anchor="start" x="8" y="-7.8" font-family="Helvetica,sans-Serif" font-size="14.00" fill="#000000">value = 0.052</text>
</g>
<!-- 1&#45;&gt;2 -->
<g id="edge2" class="edge">
<title>1&#45;&gt;2</title>
<path fill="none" stroke="#000000" d="M127.5451,-88.9777C115.8014,-79.4545 103.0562,-69.1191 91.376,-59.6473"/>
<polygon fill="#000000" stroke="#000000" points="93.4568,-56.8286 83.4852,-53.2485 89.0478,-62.2656 93.4568,-56.8286"/>
</g>
<!-- 3 -->
<g id="node4" class="node">
<title>3</title>
<path fill="#e58139" stroke="#000000" d="M208,-53C208,-53 131,-53 131,-53 125,-53 119,-47 119,-41 119,-41 119,-12 119,-12 119,-6 125,0 131,0 131,0 208,0 208,0 214,0 220,-6 220,-12 220,-12 220,-41 220,-41 220,-47 214,-53 208,-53"/>
<text text-anchor="start" x="130.5" y="-37.8" font-family="Helvetica,sans-Serif" font-size="14.00" fill="#000000">mse = 0.148</text>
<text text-anchor="start" x="127.5" y="-22.8" font-family="Helvetica,sans-Serif" font-size="14.00" fill="#000000">samples = 40</text>
<text text-anchor="start" x="127" y="-7.8" font-family="Helvetica,sans-Serif" font-size="14.00" fill="#000000">value = 0.714</text>
</g>
<!-- 1&#45;&gt;3 -->
<g id="edge3" class="edge">
<title>1&#45;&gt;3</title>
<path fill="none" stroke="#000000" d="M169.5,-88.9777C169.5,-80.7364 169.5,-71.887 169.5,-63.5153"/>
<polygon fill="#000000" stroke="#000000" points="173.0001,-63.2484 169.5,-53.2485 166.0001,-63.2485 173.0001,-63.2484"/>
</g>
<!-- 5 -->
<g id="node6" class="node">
<title>5</title>
<path fill="#f8decb" stroke="#000000" d="M332.5,-53C332.5,-53 250.5,-53 250.5,-53 244.5,-53 238.5,-47 238.5,-41 238.5,-41 238.5,-12 238.5,-12 238.5,-6 244.5,0 250.5,0 250.5,0 332.5,0 332.5,0 338.5,0 344.5,-6 344.5,-12 344.5,-12 344.5,-41 344.5,-41 344.5,-47 338.5,-53 332.5,-53"/>
<text text-anchor="start" x="252.5" y="-37.8" font-family="Helvetica,sans-Serif" font-size="14.00" fill="#000000">mse = 0.124</text>
<text text-anchor="start" x="249.5" y="-22.8" font-family="Helvetica,sans-Serif" font-size="14.00" fill="#000000">samples = 14</text>
<text text-anchor="start" x="246.5" y="-7.8" font-family="Helvetica,sans-Serif" font-size="14.00" fill="#000000">value = &#45;0.452</text>
</g>
<!-- 4&#45;&gt;5 -->
<g id="edge5" class="edge">
<title>4&#45;&gt;5</title>
<path fill="none" stroke="#000000" d="M291.5,-88.9777C291.5,-80.7364 291.5,-71.887 291.5,-63.5153"/>
<polygon fill="#000000" stroke="#000000" points="295.0001,-63.2484 291.5,-53.2485 288.0001,-63.2485 295.0001,-63.2484"/>
</g>
<!-- 6 -->
<g id="node7" class="node">
<title>6</title>
<path fill="#ffffff" stroke="#000000" d="M456.5,-53C456.5,-53 374.5,-53 374.5,-53 368.5,-53 362.5,-47 362.5,-41 362.5,-41 362.5,-12 362.5,-12 362.5,-6 368.5,0 374.5,0 374.5,0 456.5,0 456.5,0 462.5,0 468.5,-6 468.5,-12 468.5,-12 468.5,-41 468.5,-41 468.5,-47 462.5,-53 456.5,-53"/>
<text text-anchor="start" x="376.5" y="-37.8" font-family="Helvetica,sans-Serif" font-size="14.00" fill="#000000">mse = 0.041</text>
<text text-anchor="start" x="373.5" y="-22.8" font-family="Helvetica,sans-Serif" font-size="14.00" fill="#000000">samples = 15</text>
<text text-anchor="start" x="370.5" y="-7.8" font-family="Helvetica,sans-Serif" font-size="14.00" fill="#000000">value = &#45;0.869</text>
</g>
<!-- 4&#45;&gt;6 -->
<g id="edge6" class="edge">
<title>4&#45;&gt;6</title>
<path fill="none" stroke="#000000" d="M335.2178,-88.9777C347.4549,-79.4545 360.7355,-69.1191 372.9066,-59.6473"/>
<polygon fill="#000000" stroke="#000000" points="375.3866,-62.1523 381.1289,-53.2485 371.0875,-56.628 375.3866,-62.1523"/>
</g>
</g>
</svg>