<?xml version="1.0" encoding="UTF-8" standalone="no"?>
<!DOCTYPE svg PUBLIC "-//W3C//DTD SVG 1.1//EN"
 "http://www.w3.org/Graphics/SVG/1.1/DTD/svg11.dtd">
<!-- Generated by graphviz version 2.40.1 (20161225.0304)
 -->
<!-- Title: Tree Pages: 1 -->
<svg width="355pt" height="314pt"
 viewBox="0.00 0.00 355.00 314.00" xmlns="http://www.w3.org/2000/svg" xmlns:xlink="http://www.w3.org/1999/xlink">
<g id="graph0" class="graph" transform="scale(1 1) rotate(0) translate(4 310)">
<title>Tree</title>
<polygon fill="#ffffff" stroke="transparent" points="-4,4 -4,-310 351,-310 351,4 -4,4"/>
<!-- 0 -->
<g id="node1" class="node">
<title>0</title>
<path fill="#ffffff" stroke="#000000" d="M207.5,-306C207.5,-306 68.5,-306 68.5,-306 62.5,-306 56.5,-300 56.5,-294 56.5,-294 56.5,-235 56.5,-235 56.5,-229 62.5,-223 68.5,-223 68.5,-223 207.5,-223 207.5,-223 213.5,-223 219.5,-229 219.5,-235 219.5,-235 219.5,-294 219.5,-294 219.5,-300 213.5,-306 207.5,-306"/>
<text text-anchor="start" x="64.5" y="-290.8" font-family="Helvetica,sans-Serif" font-size="14.00" fill="#000000">petal length (cm) ≤ 2.45</text>
<text text-anchor="start" x="101.5" y="-275.8" font-family="Helvetica,sans-Serif" font-size="14.00" fill="#000000">gini = 0.667</text>
<text text-anchor="start" x="92" y="-260.8" font-family="Helvetica,sans-Serif" font-size="14.00" fill="#000000">samples = 150</text>
<text text-anchor="start" x="78" y="-245.8" font-family="Helvetica,sans-Serif" font-size="14.00" fill="#000000">value = [50, 50, 50]</text>
<text text-anchor="start" x="93" y="-230.8" font-family="Helvetica,sans-Serif" font-size="14.00" fill="#000000">class = setosa</text>
</g>
<!-- 1 -->
<g id="node2" class="node">
<title>1</title>
<path fill="#e58139" stroke="#000000" d="M108,-179.5C108,-179.5 12,-179.5 12,-179.5 6,-179.5 0,-173.5 0,-167.5 0,-167.5 0,-123.5 0,-123.5 0,-117.5 6,-111.5 12,-111.5 12,-111.5 108,-111.5 108,-111.5 114,-111.5 120,-117.5 120,-123.5 120,-123.5 120,-167.5 120,-167.5 120,-173.5 114,-179.5 108,-179.5"/>
<text text-anchor="start" x="31" y="-164.3" font-family="Helvetica,sans-Serif" font-size="14.00" fill="#000000">gini = 0.0</text>
<text text-anchor="start" x="18" y="-149.3" font-family="Helvetica,sans-Serif" font-size="14.00" fill="#000000">samples = 50</text>
<text text-anchor="start" x="8" y="-134.3" font-family="Helvetica,sans-Serif" font-size="14.00" fill="#000000">value = [50, 0, 0]</text>
<text text-anchor="start" x="15" y="-119.3" font-family="Helvetica,sans-Serif" font-size="14.00" fill="#000000">class = setosa</text>
</g>
<!-- 0&#45;&gt;1 -->
<g id="edge1" class="edge">
<title>0&#45;&gt;1</title>
<path fill="none" stroke="#000000" d="M110.7194,-222.8796C103.3677,-211.6636 95.4036,-199.5131 88.0126,-188.2372"/>
<polygon fill="#000000" stroke="#000000" points="90.9014,-186.2598 82.4921,-179.8149 85.0469,-190.0972 90.9014,-186.2598"/>
<text text-anchor="middle" x="77.3982" y="-200.5905" font-family="Helvetica,sans-Serif" font-size="14.00" fill="#000000">True</text>
</g>
<!-- 2 -->
<g id="node3" class="node">
<title>2</title>
<path fill="#ffffff" stroke="#000000" d="M284,-187C284,-187 150,-187 150,-187 144,-187 138,-181 138,-175 138,-175 138,-116 138,-116 138,-110 144,-104 150,-104 150,-104 284,-104 284,-104 290,-104 296,-110 296,-116 296,-116 296,-175 296,-175 296,-181 290,-187 284,-187"/>
<text text-anchor="start" x="146" y="-171.8" font-family="Helvetica,sans-Serif" font-size="14.00" fill="#000000">petal width (cm) ≤ 1.75</text>
<text text-anchor="start" x="188" y="-156.8" font-family="Helvetica,sans-Serif" font-size="14.00" fill="#000000">gini = 0.5</text>
<text text-anchor="start" x="171" y="-141.8" font-family="Helvetica,sans-Serif" font-size="14.00" fill="#000000">samples = 100</text>
<text text-anchor="start" x="161" y="-126.8" font-family="Helvetica,sans-Serif" font-size="14.00" fill="#000000">value = [0, 50, 50]</text>
<text text-anchor="start" x="163" y="-111.8" font-family="Helvetica,sans-Serif" font-size="14.00" fill="#000000">class = versicolor</text>
</g>
<!-- 0&#45;&gt;2 -->
<g id="edge2" class="edge">
<title>0&#45;&gt;2</title>
<path fill="none" stroke="#000000" d="M165.6304,-222.8796C171.43,-214.1434 177.6059,-204.8404 183.5908,-195.8253"/>
<polygon fill="#000000" stroke="#000000" points="186.6368,-197.5652 189.2517,-187.2981 180.8049,-193.6935 186.6368,-197.5652"/>
<text text-anchor="middle" x="194.2022" y="-208.103" font-family="Helvetica,sans-Serif" font-size="14.00" fill="#000000">False</text>
</g>
<!-- 3 -->
<g id="node4" class="node">
<title>3</title>
<path fill="#4de88e" stroke="#000000" d="M197,-68C197,-68 97,-68 97,-68 91,-68 85,-62 85,-56 85,-56 85,-12 85,-12 85,-6 91,0 97,0 97,0 197,0 197,0 203,0 209,-6 209,-12 209,-12 209,-56 209,-56 209,-62 203,-68 197,-68"/>
<text text-anchor="start" x="110.5" y="-52.8" font-family="Helvetica,sans-Serif" font-size="14.00" fill="#000000">gini = 0.168</text>
<text text-anchor="start" x="105" y="-37.8" font-family="Helvetica,sans-Serif" font-size="14.00" fill="#000000">samples = 54</text>
<text text-anchor="start" x="95" y="-22.8" font-family="Helvetica,sans-Serif" font-size="14.00" fill="#000000">value = [0, 49, 5]</text>
<text text-anchor="start" x="93" y="-7.8" font-family="Helvetica,sans-Serif" font-size="14.00" fill="#000000">class = versicolor</text>
</g>
<!-- 2&#45;&gt;3 -->
<g id="edge3" class="edge">
<title>2&#45;&gt;3</title>
<path fill="none" stroke="#000000" d="M190.9346,-103.9815C185.3955,-95.1585 179.5364,-85.8258 173.9645,-76.9506"/>
<polygon fill="#000000" stroke="#000000" points="176.7922,-74.872 168.5108,-68.2637 170.8637,-78.594 176.7922,-74.872"/>
</g>
<!-- 4 -->
<g id="node5" class="node">
<title>4</title>
<path fill="#843de6" stroke="#000000" d="M335,-68C335,-68 239,-68 239,-68 233,-68 227,-62 227,-56 227,-56 227,-12 227,-12 227,-6 233,0 239,0 239,0 335,0 335,0 341,0 347,-6 347,-12 347,-12 347,-56 347,-56 347,-62 341,-68 335,-68"/>
<text text-anchor="start" x="250.5" y="-52.8" font-family="Helvetica,sans-Serif" font-size="14.00" fill="#000000">gini = 0.043</text>
<text text-anchor="start" x="245" y="-37.8" font-family="Helvetica,sans-Serif" font-size="14.00" fill="#000000">samples = 46</text>
<text text-anchor="start" x="235" y="-22.8" font-family="Helvetica,sans-Serif" font-size="14.00" fill="#000000">value = [0, 1, 45]</text>
<text text-anchor="start" x="237" y="-7.8" font-family="Helvetica,sans-Serif" font-size="14.00" fill="#000000">class = virginica</text>
</g>
<!-- 2&#45;&gt;4 -->
<g id="edge4" class="edge">
<title>2&#45;&gt;4</title>
<path fill="none" stroke="#000000" d="M243.0654,-103.9815C248.6045,-95.1585 254.4636,-85.8258 260.0355,-76.9506"/>
<polygon fill="#000000" stroke="#000000" points="263.1363,-78.594 265.4892,-68.2637 257.2078,-74.872 263.1363,-78.594"/>
</g>
</g>
</svg>
